<?xml version="1.0" encoding="utf-8"?>
<!-- Generator: Adobe Illustrator 24.1.0, SVG Export Plug-In . SVG Version: 6.00 Build 0)  -->
<svg version="1.1" id="Layer_1" xmlns="http://www.w3.org/2000/svg" xmlns:xlink="http://www.w3.org/1999/xlink" x="0px" y="0px"
	 viewBox="0 0 1024 1024" style="enable-background:new 0 0 1024 1024;" xml:space="preserve">
<style type="text/css">
	.st0{fill:#191919;}
	.st1{fill:#282929;}
	.st2{fill:#4C4C4C;}
	.st3{fill:#2E2F2F;}
	.st4{fill:#171717;}
	.st5{fill:#151515;}
	.st6{fill:#2F3030;}
	.st7{fill:#2F2F2F;}
	.st8{fill:#1A1A1A;}
	.st9{fill:#292A2A;}
	.st10{fill:#1B1B1B;}
	.st11{fill:#1C1C1C;}
	.st12{fill:#1D1D1D;}
	.st13{fill:#212021;}
	.st14{fill:#201F1F;}
</style>
<g id="Layer_1_1_">
	<path class="st0" d="M1196.7,571.6c0,149.8,0,299.7,0.1,449.5c0,3.2-0.7,3.9-3.9,3.9c-243.8-0.1-487.6-0.1-731.5-0.1
		c0.1-1.6,1.2-2.5,2.4-3.3c10.8-7.9,21-16.3,30.1-26c8-8.5,15.1-17.8,20.8-27.9c12.8-22.6,25.1-45.5,37.6-68.2
		c3.7-6.8,8.1-13,13.9-18.1c4.7-4.1,9.5-8,14.4-11.9c13.6-11,28.1-20.5,44.4-27.3c25.1-10.4,51.4-17.2,77-26
		c23.3-8,47.1-14.8,70.8-21.5c42.7-12,85.4-24.1,127.2-39.4c10-3.7,20.3-6.6,29.6-11.9c15.2-8.5,30.2-17.5,44.8-27
		c13-8.4,24.7-18.3,35.2-29.8c10.2-11.3,20.1-22.7,29.5-34.6c11.6-14.8,21.4-31.1,35.7-43.6c8.7-7.6,17.9-14.4,28.6-19
		c22.2-9.5,46-11.4,69.5-14.5c7.7-1,15.4-1.5,23-3.4l0.4-0.1L1196.7,571.6z"/>
	<path class="st0" d="M435.8,1024.9c-85.1,0-178.3-0.9-263.5-0.9c-1.9-5.2-4.8-9.9-7.9-14.5c-17.7-26.2-31.2-48.4-43.6-77.6
		c-8-18.7-20.5-34-31-51.5c13.3-8.3,36.6-24.1,50-32.4c2.9-1.8,3.5-3.3,1.4-6.3c-6.5-9.3-12.6-18.8-18.9-28.2
		c-0.8-1.3-1.5-2.8-3.3-3.1c18.1-13.4,37.1-25,57.6-34.4c22-10.2,45.3-13.4,69.2-12.4c18.2,0.8,35.8,6.1,53.5,9.5
		c17,3.3,33.6,3.8,50.6,0.6c26.9-5.1,51.2-16,74.5-29.8c9.8-0.2,19.5,0.9,29.3,2c0.8,2.5,2.4,4.4,4.3,6.3
		c13.2,13.1,28.9,22.8,44.6,32.5c9.4,5.8,18.6,11.5,24.4,21.3c5,8.4,8.3,17.4,11.6,26.5c6.2,17.6,5,34.4-4,50.9
		c-17.3,31.8-35.2,63.2-53.1,94.7c-8.3,14.6-18.5,27.5-32.2,37.4C444.7,1018.6,440.2,1021.7,435.8,1024.9z M138.7,801.3
		c-0.4,0.2-1,0.5-1.6,0.9c-2.9,2-5.7,4.3-8.8,6c-2.8,1.6-2.7,3.1-1,5.3c5.1,6.6,10.3,13.1,15.2,19.8c1.4,1.9,2.5,2,4.1,0.8
		c3.1-2.2,6.2-4.5,9.3-6.7c1.4-1,1.6-2.2,0.5-3.6c-5.2-7-10.4-14.1-15.5-21.2C140.5,802,139.9,801.4,138.7,801.3z"/>
	<path class="st1" d="M435.8,1024.9c4.5-3.2,9-6.4,13.4-9.6c13.7-9.9,23.9-22.8,32.2-37.4c17.9-31.5,35.8-62.9,53.1-94.7
		c9-16.5,10.2-33.3,4-50.9c-3.2-9.1-6.5-18.1-11.6-26.5c-5.9-9.8-15.1-15.5-24.4-21.3c-15.7-9.7-31.4-19.4-44.6-32.5
		c-1.8-1.8-3.5-3.7-4.3-6.3c9.1,0.8,18.3,1.7,27.4,2.5c0.6,3,3.6,3.8,5.4,5.7c5.6,5.9,12,10.6,19.1,14.8c8.1,4.8,16.7,9,22.7,16.8
		c13.4,17.2,24.7,35.3,28.9,57.1c1.2,6.1,2.7,12.2,3.1,18.7c1.9-1.3,3.2-2.8,4.5-4.3c8.8-9.5,19.2-16.6,30.8-22.3
		c12.8-6.3,25.8-11.8,38.9-17.3c42.1-17.6,85.5-31.3,129.6-42.9c21.5-5.6,42.9-11.7,64.4-17.4c19.5-5.2,38.7-11.1,57.9-17.1
		c12.5-3.9,24.8-8,36.3-14.6c8.5-4.9,16.3-10.8,24-16.8c16.3-12.6,29.9-27.7,40.5-45.5c10.9-18.3,21-37,32.9-54.7
		c2.8-4.1,6.6-7.6,8.7-12c5.4-11.5,9.8-23.5,12.3-36.2c2-10.3,5.5-20.2,7.2-30.6c3,0.7,6,1.5,8.8,2.9c-1.5,0.9-1.8,2.4-2.2,4
		c-4.2,15.3-8.4,30.6-12.6,45.9c-0.4,1.4-2.3,3.5-0.1,4.4c1.5,0.6,2.6-1.7,3.5-3.2c0.1-0.2,0.3-0.5,0.4-0.8
		c5.2-13.5,10.4-27,15.5-40.5c0.9-2.5,2.5-4.9,1.9-7.8c5.9,1.4,11.6,3.3,17.1,5.8c-4.5,10.9-9,21.8-13.7,33c6.8-1,12.3-2.5,14.6-9.7
		c1.6-5.1,4.6-9.7,7.1-14.5c0.8-1.7,1.6-3.3,1.4-5.2c2.7,0.5,5.3,1.4,7.7,2.6c-2.6,5.3-5.2,10.7-7.7,16.1c-0.7,1.5-2.1,3.2-0.9,4.6
		c1,1.3,2.9,0.1,4.4-0.2c6.4-1.1,12-5,18.6-5.7c5.2-0.5,10.3-1.3,15.4-2.2c1.7-0.3,3.8-0.1,4.4-2.5c7.8-0.1,15,2.7,22.4,4.4
		c14,3.2,27.8,6.7,41.8,10.1c-7.6,1.9-15.3,2.4-23,3.4c-23.6,3.1-47.3,5-69.5,14.5c-10.7,4.6-19.9,11.4-28.6,19
		c-14.3,12.5-24.1,28.8-35.7,43.6c-9.4,11.9-19.3,23.3-29.5,34.6c-10.5,11.6-22.2,21.5-35.2,29.8c-14.7,9.4-29.6,18.4-44.8,27
		c-9.3,5.2-19.6,8.2-29.6,11.9c-41.7,15.2-84.4,27.4-127.2,39.4c-23.7,6.7-47.5,13.5-70.8,21.5c-25.6,8.8-51.9,15.6-77,26
		c-16.3,6.8-30.7,16.3-44.4,27.3c-4.8,3.9-9.7,7.8-14.4,11.9c-5.8,5.1-10.2,11.4-13.9,18.1c-12.5,22.8-24.9,45.6-37.6,68.2
		c-5.7,10.1-12.8,19.3-20.8,27.9c-9.2,9.7-19.4,18.2-30.1,26c-1.2,0.9-2.3,1.7-2.4,3.3C452.8,1024.9,444.3,1024.9,435.8,1024.9z"/>
	<path class="st0" d="M1.1,1024.9c0-43.1,0-86.2-0.1-129.3c0-3,0.8-4.8,3.4-6.5c19.8-13.2,29.6-19.2,49.2-32.7
		c3.1-2.1,4.5-1.5,6.4,1.2c8.4,11.8,15.3,24.5,22.7,37c16.6,28.2,35.1,54.3,49,83.9c7.6,16.3,15.1,26.2,25.8,40.5
		c1.3,1.7,3.7,2.4,4.2,4.8c0,0.1-0.2,0.2-0.3,0.2C105.1,1024,57.1,1024.9,1.1,1024.9z"/>
	<path class="st0" d="M1196.7,360.7c0,62.3,0,124.6,0,187c-7.8-1.3-15.7-2.3-23.4-4.1c-22.9-5.2-45.4-11.6-68.1-17.7
		c1.6-10.9,4.7-21.6,7.6-32.2c6.8-24.8,15-49.3,21.2-74.3c2.1-8.5,5-16.8,6.4-25.5c0.8-0.5,1.6-1.2,2.5-1.6
		c14.1-7.5,27.7-15.6,41.3-24C1188.3,365.8,1191.8,362.1,1196.7,360.7z"/>
	<path class="st1" d="M1125.8,7.2c3.1-5.1,7.2-7.3,13.5-7c12.3,0.6,24.6,0.3,36.9,0.3c3.6,8.3,9.5,14.9,15.4,21.5
		c1.5,1.7,2.2,4.5,5.1,4.8c0,52.7,0,105.3,0,157.9c-2.6,0.7-2.1,3.2-2.5,4.9c-5.3,22.7-10.3,45.5-15.8,68.2
		c-8.5,35-17.9,69.7-28.1,104.2c-2,6.9-5,13.6-5.8,20.8c-6.9,4-13.8,8.3-21.3,11.1c0.2-0.8,0.3-1.7,0.8-2.4c4.9-7.5,7.3-16,9.4-24.5
		c5.7-22.9,10.5-46.1,16.8-68.8c8.2-29.6,14.8-59.6,20.9-89.6c4.1-20.2,7.9-40.5,11.7-60.7c3.2-16.7,2.6-33.4-0.5-50.1
		c-2.3-12.5-4.6-25-7.2-37.5c-2-9.6-5.9-18.1-13.1-25.2C1151.1,24.4,1138.4,15.9,1125.8,7.2z"/>
	<path class="st2" d="M1123.3,394c7.5-2.9,14.3-7.2,21.3-11.1c11.3-5.9,22.2-12.4,33-19.1c6.4-4,12.7-8.3,19.1-12.5
		c0,3.1,0,6.3,0,9.4c-4.9,1.4-8.4,5.1-12.6,7.7c-13.6,8.3-27.2,16.5-41.3,24c-0.9,0.5-1.7,1.1-2.5,1.6c-9.1,4.8-18.2,9.6-27.4,14.5
		c-1.4,0.6-2.9,1.1-4.3,1.8c-15.6,7.9-31.2,15.9-46.8,23.7c-22.3,11.1-44.3,22.5-65.4,35.9c-9.2,5.8-18.3,11.9-26.1,19.7
		c-4.8,2.8-8.6,6.8-12.8,10.3c-1.1,0.9-3,1.4-2.6,3.4c-2.1,0.3-3.6,1.7-5,3c-9.4,8.2-18.8,16.4-28.1,24.7
		c-23.1,20.7-48.1,38.8-72.7,57.6c-28.3,21.6-57,42.7-86.1,63.3c-18.3,12.9-36.2,26.5-56.8,35.9c-17,7.7-34.5,13.8-52.3,19.5
		c-13.1,4.2-26.6,7.5-39.1,13.2c-18.9,8.6-38.3,15.8-57.9,22.6c-15.5,5.3-31.3,9.4-48,7.8c-9.3-0.9-18.6-1.7-27.9-2.5
		c-9.1-0.8-18.3-1.7-27.4-2.5c-9.7-1-19.5-2.1-29.3-1.9c-6.6-1.3-13.4-1-20.1-1.5c-5.5-0.5-11-0.7-16.4-1.1
		c3.7-3.7,8.2-5.8,13.3-6.6c11.6,0.8,23.2,1.6,34.8,2.4c11.3,0.9,22.6,1.7,33.9,2.6c1.9,0.6,3.9,0.8,5.9,1
		c8.3,0.7,16.6,1.9,24.9,2.3c11,0.5,22,2.1,33-0.7c20.5-5.3,40.3-12.6,60-20.5c5.3-2.1,11.2-3.3,15.5-7.6c6.8-2.5,13.7-5,20.5-7.5
		c3,1.3,5.4-0.8,7.9-1.6c21.6-7,43.3-13.6,64-23c22.7-10.3,42.3-25.3,62.4-39.7c29.5-21.1,58.8-42.6,87.6-64.7
		c14.7-11.3,29.6-22.5,44.1-34.1c10.5-8.4,20.8-17.2,30.8-26.1c6.4-5.7,13.5-10.9,19.1-17.5c5.7-4.2,10.9-8.9,16.1-13.7
		c7.3-5.5,14.5-11.4,22.1-16.6c27.7-19.3,58.2-33.7,88.2-49c15.8-8.1,31.8-15.7,47.6-24C1120.8,395.9,1122.4,395.5,1123.3,394z"/>
	<path class="st0" d="M1196.7,351.3c-6.4,4.2-12.7,8.4-19.1,12.5c-10.8,6.8-21.7,13.3-33,19.1c0.8-7.3,3.7-13.9,5.8-20.8
		c10.1-34.5,19.5-69.2,28.1-104.2c5.5-22.7,10.5-45.5,15.8-68.2c0.4-1.7-0.2-4.2,2.5-4.9C1196.7,240.3,1196.7,295.8,1196.7,351.3z"
		/>
	<path class="st0" d="M1196.7,26.8c-2.9-0.3-3.5-3.1-5.1-4.8c-5.9-6.6-11.9-13.3-15.4-21.5c6.8,0,13.7-0.1,20.5-0.1
		C1196.7,9.2,1196.7,18,1196.7,26.8z"/>
	<path class="st3" d="M138.7,801.3c1.3,0.1,1.8,0.7,2.3,1.4c5.1,7.1,10.3,14.2,15.5,21.2c1.1,1.4,0.9,2.6-0.5,3.6
		c-3.1,2.2-6.1,4.5-9.3,6.7c-1.6,1.2-2.8,1.1-4.1-0.8c-4.9-6.7-10.1-13.3-15.2-19.8c-1.8-2.3-1.8-3.8,1-5.3c3.1-1.7,5.8-4,8.8-6
		C137.7,801.9,138.3,801.5,138.7,801.3z"/>
	<path class="st0" d="M402,59.5c-2.9-3.1-6.7-3-10,0.3c-1.2,1.2-2,2.7-2.9,4c-0.3-2.3-0.6-4.5,0-6.8c0.4-1.3-0.1-1.9-1.4-2
		c-6.8-0.6-13.5-1.1-20.3-1.8c-2.6-0.2-3.3,0.9-3.5,3.4c-0.8,7.9-2.1,15.7-3,23.5c-0.9,8-2.6,15.9-2.7,24c-2.5,3.6,0.4,4.2,2.8,4.6
		c11.3,2.1,22.6,4.1,33.9,6.1c6.4,1.1,12.7,3,18.8,5.2c3.5,1.2,4.7,3.4,3.2,6.9c-0.4,0.9-0.5,1.9-1.1,2.7
		c-6.6,9.6-5.8,20.1-3.7,30.8c1.6,8.2,3.3,16.4,4.9,24.6c0.5,2.8,0,5.6-0.9,8.4c-3,9.4-6.5,18.7-10.6,27.7
		c-4.4,9.6-4.2,10.9,3.7,17.8c0,1-0.1,1.9-0.9,2.8c-8.1,9.5-15.6,19.4-22.7,29.6c-2.4,3.4-6,6.2-6.4,10.8
		c-8,11.8-14.2,24.6-21.3,36.9c-20.5,35.7-42.8,70.4-65.4,104.8c-8.3,12.6-15.7,26.1-28.3,35.4c-5,3.7-9.6,7.9-14.1,12.3
		c-15,14.8-28.7,30.6-41.8,47.2c-1.9-0.2-3.6,0.5-5.4,1.1c-9.3,3.1-18.5,6.3-27.8,9.3c-16.6,5.3-33.5,9.8-49.7,16
		c-25.6,9.7-51.9,14.6-79.1,15.4C31.2,561,16.1,558.7,1,558c0-1.7-0.1-3.4-0.1-5.1c0-182.4,0-364.8-0.1-547.3c0-4.2,0.9-5.3,5.2-5.3
		c195,0.1,390,0.1,585,0.1c1.7,0,3.4,0.1,5.1,0.1c-18.5,20.4-37,40.8-55.6,61C530,72.9,520,84.7,511.6,97.7c-2.1,3.3-3.8,7-7,9.5
		c-6.6-4.7-12.4-10.4-19.4-14.5c-9.7-5.7-19.6-7.3-29.6-0.8c-3.7,2.4-7,5.3-10.4,8c-0.5-2.1,0.6-3.5,2-4.8c3.6-3.5,7-7.1,10.6-10.5
		c2.1-2,2.4-3.3-0.4-5.3c-7.1-4.9-13.9-10.2-20.8-15.4c-0.9-0.7-1.8-1.2-3-1.3c-6.7-1-13.3-2.3-20-3.1
		C409.8,59.1,405.9,57.1,402,59.5z"/>
	<path class="st0" d="M1123.3,394c-0.9,1.5-2.4,1.9-3.8,2.6c-15.7,8.3-31.8,15.9-47.6,24c-29.9,15.4-60.4,29.8-88.2,49
		c-7.6,5.3-14.7,11-22.1,16.6c-32.5-14.4-63.4-31.8-91.9-53.1c-20.5-15.4-39-33.1-57.6-50.7c-4-3.8-7.9-7.8-12.1-11.5
		c-2.3-2-2-3.2-0.1-5.4c29-33,58-66,88.2-97.9c29-30.5,55.6-63.2,83.1-95c20.9-24.2,43.1-47.3,64.9-70.7c29-31.1,58.2-62,87.3-93
		c0.7-0.7,1.5-1.3,2.2-2c12.6,8.7,25.3,17.2,36.3,28c7.2,7.1,11.1,15.6,13.1,25.2c2.6,12.4,4.8,25,7.2,37.5
		c3.1,16.7,3.7,33.4,0.5,50.1c-3.8,20.3-7.6,40.5-11.7,60.7c-6.1,30.1-12.7,60-20.9,89.7c-6.3,22.8-11.1,45.9-16.8,68.8
		c-2.1,8.5-4.6,17-9.4,24.5C1123.6,392.3,1123.5,393.2,1123.3,394z"/>
	<path class="st4" d="M515.2,416.1c0.6,0.5,1,0.9,1.5,1.3c7.1,5.6,15.7,5.6,22.2-0.6c16.7-15.7,33.1-31.6,49.7-47.4
		c1.7-1.6,1.6-2.8,0.9-5.1c-2.9-9-4.5-18.1-2.6-27.6c1-4.9,4-8.2,7.4-11.8c10.5-11.2,20.4-22.9,30.5-34.5
		c7.7-8.8,15.3-17.6,22.8-26.5c2-2.4,3.1-2.1,5.3-0.3c14.4,12.6,112,103.2,113.6,104.5c2.1,1.7,2.1,2.9,0.2,4.9
		c-17,18.7-34.1,37.4-50.8,56.4c-32.2,36.6-63.9,73.6-95.2,111c-15.7,18.8-33,36.1-49.8,53.8c-20.1,21.1-39.8,42.6-61.2,62.5
		c-19.3,18-38.9,35.8-63.2,47.3c-3.1,1.5-4.5,1.1-6.4-1.6c-13.6-18.4-28.2-36.1-40.9-55.1c-7.9-11.8-14.2-25-23.5-35.7
		c-14.8-17.1-17.6-38.3-23.4-58.6c-3.4-12-6-24.2-9-36.3c-0.4-1.5-1.4-2.8,1.2-3.5c18-4.9,35.5-12.5,54-14.7
		c18-2.1,34.6-8.4,51.4-14.1c9.2-3.1,15.4-8.9,16.8-18.9c0.1-1.1,0.8-1.8,1.5-2.5c15-15.1,30.1-30.3,45.2-45.4
		C513.9,417.2,514.5,416.7,515.2,416.1z"/>
	<path class="st5" d="M780.8,105.4c21.5-25,42.9-50,64.4-75.1c8-9.3,16-18.5,23.9-27.8c1.2-1.4,2.2-2.2,4.2-2.2
		c77.5,0.1,155.1,0.1,232.7,0.1c0.3,0,0.5,0.1,1.4,0.4c-5.2,5.5-10.2,10.8-15.3,16c-42.2,44.4-84.9,88.4-126,133.7
		c-37.5,41.4-74.3,83.4-111.3,125.2c-22.9,25.8-45.8,51.7-68.7,77.5c-1.4,1.6-2.3,3.3-5,1c-24.3-21.5-48.1-43.4-72-65.2
		c2.7-4.5,6.6-8.1,10-12.1c11.7-13.7,23.5-27.2,35.4-40.6c14.4-16.2,28.8-32.3,43.3-48.4c10.6-11.8,21.2-23.6,31.9-35.3
		c1.8-1.9,1.7-3.4-0.2-5c-2.5-2.1-4.8-4.3-7.3-6.4c-8.7-7.4-17.5-14.7-26.2-22.3C790.9,114.4,785.4,110.5,780.8,105.4z"/>
	<path class="st0" d="M612.1,700.4c-12.8-0.3-24-3.6-33.5-11.7c-11.5-9.8-22.8-19.8-34.2-29.5c-2.1-1.8-2.3-2.8-0.3-5
		c66.7-74.6,133.4-149.2,200-223.9c13.2-14.7,26.3-29.5,39.4-44.3c1.5-1.6,2.4-3,5-0.9c34.2,28,68.3,56.1,102.9,83.7
		c15.6,12.5,15.5,19.6,9.4,41.1c-2,7.1-7.3,12.4-13,17.1c-33.3,27.8-67.8,54.1-102.1,80.5c-18.9,14.6-37,30.2-57.1,43.2
		c-30.6,19.8-64,33.9-98,46.6C624.3,699.5,618,700.1,612.1,700.4z"/>
	<path class="st4" d="M189.6,558.4c37.2-10.8,74.4-21.6,111.6-32.4c6.1-1.8,12.3-3.4,18.3-5.5c3.1-1,4.3-0.4,5.1,2.8
		c5.8,21.9,12.7,43.4,18,65.4c2.1,8.6,5.1,17.3,10.5,23.9c7.6,9.3,14.5,19.1,21,29.1c6.8,10.5,12.5,21.7,19.5,32.2
		c9.3,14.1,20.5,26.8,30.3,40.6c1.9,2.6,2,4-0.8,5.9c-4.6,3.1-9,6.5-13.9,9c-0.7-0.5-1.4-1-2-1.6c-10.5-10.4-20.8-21-31.8-30.9
		c-1.3-1.1-2.3-2.6-4.2-2.5c-5.7,0.3-11.3-0.7-17-1c-7.5-0.5-15-0.2-22.4-1.4c-4-0.7-8-0.6-11.1,3.3c-6.8,8.7-14.1,17-21,25.6
		c-2.2,2.7-5,5.2-4,9.3c-11.3-1.4-22.7-0.9-34-1.4c-14-0.6-28.1-0.8-42.2,0.5c-17.5,1.6-33.9,6.4-49,15.5
		c-23.3,14.1-46.6,28.3-71.6,39.4c-14.4,6.4-29.1,12.1-45.2,12.6c-9.1,0.3-18,1.6-27,3c-8.5,1.3-17,3.1-25.5,4.6
		c0-13.1,0-26.1,0.1-39.2c2-0.4,3.5-1.9,5-3.1C29,744.9,52,727.8,74.1,709.5c9.7-8,19.4-16.2,27.1-26.4c24.3-32.3,46.4-66.3,70.3-99
		C177.6,575.7,183.6,567,189.6,558.4z M288.9,541.3c-3,1.3-6,2.5-9,3.8c-12.8,5.5-25.6,10.9-38.3,16.4c-1.8,0.8-3.2,1.4-1.9,4
		c10.8,22.2,21.5,44.5,32.1,66.8c1.1,2.4,2.3,2.6,4.6,1.5c4.5-2.1,9.1-3.9,13.7-5.9c10.6-4.5,21.1-9,31.7-13.5
		c2.7-1.1,3.3-2.5,1.8-5.2c-2.1-3.7-3.9-7.6-5.8-11.4c-8.8-17.8-17.6-35.7-26.4-53.5C290.9,543.2,290.8,541.6,288.9,541.3z"/>
	<path class="st6" d="M379.3,282c0.4-4.6,4-7.4,6.4-10.8c7.1-10.2,14.6-20.2,22.7-29.6c0.7-0.8,0.9-1.8,0.9-2.8
		c1.2,0,1.9-0.8,2.3-1.7c2.1-4.4,4.5-3.5,7.7-1c3.9,3,8.1,5.6,12.2,8.4c-1,3-3,5.4-4.7,7.9c-5.4,8.3-5.4,8.3,2.3,14.2
		c0.8,0.6,1.5,1.3,2.3,1.9c4.6,3.3,5.1,3.2,8.6-1.5c6-7.9,11.9-15.8,18.1-23.5c1.4-1.7,2.2-4.5,5-4.8c1.6,1.3,2.9,2.1,4.4-0.4
		c0.8-1.4,2.4-2.4,3.5-3.7c12.2-14.1,24.4-28.4,36.6-42.4c2.3-2.7,3.3-4.9-0.1-7.3c0-1.3,0.8-2.1,1.6-2.9c6.7-6.9,14.6-12,23.4-15.9
		c2.9-1.3,6.3-1.7,8.4-4.5c8.7,7.9,17.5,15.7,26.2,23.6c22.5,20.6,44.9,41.4,67.5,61.9c2.6,2.3,2.6,3.7,0.3,6.2
		c-4.7,5.1-9.4,10.3-13.6,15.8c-4.7,6.2-11.7,6.3-18,4.4c-1.2-0.4-2.3-2.1-3.8-0.8c-1.7,1.5-3.5,3-4.8,4.8c-0.9,1.1,0.7,1.6,1.3,2.3
		c2.5,2.5,4.9,5.1,6.3,8.4c-1.1,0-1.9,0.5-2.6,1.3c-4.6,5-9.4,9.7-13.6,15c-2.3,2.9-6.1,4.7-7,8.7c-8-5.8-15-12.8-22.5-19.1
		c-3.1-2.6-6.3-5.2-9.2-8.1c-2.3-2.4-4.2-2.3-6,0.3c-1.1,1.5-3.5,2.2-3.3,4.6c-2.2-0.4-3.3,1.3-4.6,2.6
		c-15.3,16.1-30.7,32.3-45.9,48.5c-6.1,6.5-12.1,13.1-18.1,19.7c-1.5,1.7-2.6,1.7-4.1,0.1c-2-2-3.7-4.3-6.3-5.7
		c-2.8-1.4-3.8-6.5-7.5-4.9c-2.9,1.3-5,4.6-7.4,6.9c-2,1.9-1.5,3.5,0.5,4.9c5.7,4.1,9.9,9.7,15.4,14c2.7,2.1,6.6,4.4,6.8,7.7
		c0.2,2.9-4,4.8-6.2,7.1c-1.2,1.3-1.6,2.1-0.1,3.5c4.7,4.5,9.3,9.2,13.9,13.8c1,1,2.2,1.6,3.4,0.5c5.1-4.6,10.2-9.3,15.3-14
		c6.6,5.1,12.2,11.4,18.4,17.1c1.3,1.1,1.2,1.9,0,3c-9.5,8.6-18.7,17.7-28.1,26.4c-4.6,4.3-9,9-13.5,13.4c-3.2,3.2-7.1,5-11.8,5
		c-3.9,0-6.1-1.6-6.9-5.4c-2.2-10.1-4.6-20.1-6.5-30.2c-0.5-2.7-1.5-2.7-3.5-2c-3.4,1.1-6.7,2.3-10.2,3c-2.7,0.6-3.2,1.6-2.3,4.4
		c4.1,12.9,7.8,25.8,11.7,38.7c1.8,6.2-0.5,13.2-7.9,14.8c-6.2,1.3-12.1,3.7-18.2,5.4c-6.8,1.9-9.7,0.3-11.6-6.5
		c-2.6-9.1-5.2-18.2-7.6-27.3c-0.6-2.3-1.5-3.1-3.8-2.5c-2.4,0.7-4.9,1.3-7.4,1.9c1.3,4.6,2.7,9,3.8,13.5c1.7,6.8-0.3,10.9-6.8,13.6
		c-13.9,5.8-28.4,9.8-43.2,12.6c-2.5-11-5-22-7.7-33c-0.7-2.7-0.5-4,2.7-4.6c7.1-1.4,14-3.3,21.1-5c2.8-0.6,3.9-1.6,3-5
		c-3.4-12.7-6.2-25.6-9.6-38.3c-0.9-3.5,0.2-4.7,3.4-5.2c3.9-0.6,7.8-1.4,11.7-2.2c2.4-0.5,3.5-2,3.6-4.5c0.1-2.4-1.3-3-3.2-3.8
		c-3-1.2-5.9-2.8-8.8-4.2c0-3.4,2.3-5.7,3.8-8.4c11.3-20.2,25.4-38.4,39.5-56.7c8.3-10.8,16.2-21.8,24.4-32.6
		c2.1-2.8,1.8-4.8-1.2-6.6c-2.2-1.3-4.4-2.6-6.2-4.5c-2.7-2.7-4.4-1.9-6.5,0.6c-3.4,4.1-6.8,8.4-11.1,11.6
		c-3.7-2.3-7.4-4.5-11.1-6.8C383.6,284,381.8,282.5,379.3,282z M532.3,285.5c2.2-0.8,3.3-3,5-4.4c2-1.5,1.8-2.5-0.1-4.1
		c-5.1-4.2-10.1-8.7-15-13.1c-7.6-6.8-7.6-6.8-11.8,2.8c-1.5,2.4-2.9,4.8-4.5,7.2c-1.1,1.7-0.8,3,0.7,4.4
		c5.2,4.8,10.3,9.6,15.4,14.5c1.6,1.5,3,1.4,4.3-0.2C528.3,290.3,530.3,287.9,532.3,285.5z M525.4,217.1c-13,13.1-24.5,27.5-37,41.1
		c-1.2,1.4-0.7,2.1,0.4,3.1c3.2,2.9,6.3,5.8,9.3,8.8c1.5,1.5,2.3,1.1,3.2-0.5c2.6-4.7,5.3-9.4,7.9-14.1c0.5-0.9,1.1-1.7,0.5-2.7
		c-1.3-2.1-0.2-3.8,1.1-5.4c5.4-6.4,10.7-12.8,16.3-19c1.9-2.1,4.4-3.2,7.3-2.1c1.3,0.5,2.1,0.3,3-0.5c6.8-6.3,7-5.1-0.7-8.9
		c-0.1-0.1-0.2-0.2-0.2-0.4c0.1-2.3-0.2-4.5,0.6-6.8c0.6-1.5,0.3-3-1-4.3c-4.8-5-9.6-10.1-14.3-15.2c-1.4-1.6-2.6-2.4-4.5-0.4
		c-1.8,1.9-0.8,3,0.6,4.2c3.8,3.5,7.4,7.1,11.3,10.3c2.9,2.5,3.4,4.4,0.1,6.9C527.4,212.7,525.7,214.5,525.4,217.1z M382.9,395.7
		c11.1-2,21.6-6,32.4-9c1-0.3,1.6-1.1,1.7-2.2c4.1-1.8,5.8-5.8,7.9-9.3c3.8-1.8,6-5.4,9-8.1c0.9-0.8,1-2,0-2.5
		c-3.2-1.8-4.9-5.5-8.6-6.5c1.4-6.2,5.7-10.7,9.1-15.9c-3-2.4-6.1-4.5-8.8-7c-2.4-2.3-3.7-1.7-5.7,0.5
		c-12.7,14.5-25.4,29.1-38.5,43.2c-9.3,10-11.5,21.2-8.5,34.1c1.5,6.6,1.4,6.4,8.4,5.1c2.9-0.5,3.2-1.2,2.6-4.1
		C382.7,408,380.8,401.9,382.9,395.7z M495.3,275.6c0.1-1-0.7-1.3-1.2-1.7c-2.9-2.5-5.8-5-8.6-7.6c-1.8-1.7-2.8-1.9-4.5,0.3
		c-4.4,5.4-9.1,10.5-13.6,15.8c-3,3.5-8.8,7-8.1,10.6c0.6,3.5,6.6,6,10,9.2c1.6,1.5,2.5,1,3.6-0.4c7.1-8.3,14.2-16.6,21.3-24.9
		C494.7,276.5,495.1,276,495.3,275.6z M426.5,328.6c3.5,2.7,6.9,5.2,10.2,7.9c1.3,1.1,2.2,1.3,3.5-0.1c5.2-5.4,10.4-10.8,15.8-16.1
		c1.4-1.4,1.3-2.1-0.2-3.3c-3.3-2.5-6.5-5.1-9.6-7.8c-1.4-1.2-2.1-0.8-3.1,0.4C437.6,316,432.1,322.3,426.5,328.6z M426.1,382.6
		c-2,2.5-3.6,4.5-5.3,6.3c-1.5,1.5-1.7,3.1-1.3,5c2,8.5,4,16.9,5.9,25.4c0.4,1.6,1,2.2,2.6,1.8c4.3-1.3,8.7-2.5,13-3.8
		c1.1-0.3,1.5-0.7,1.4-2.1c-0.6-6-2.8-8.8-8.7-10.6c-1.8-0.6-2.9-1.2-3.3-3.5C429.4,395.1,427.7,389.2,426.1,382.6z M540,230.5
		c6.7,5.9,13.6,11.6,20,17.8c2.8,2.7,4.5,2.7,6.7-0.2c0.4-0.6,1-1.1,1.5-1.5c1.7-1.2,1.8-2,0-3.5c-5.3-4.5-10.3-9.3-15.6-13.8
		C546.1,223.5,546.1,223.5,540,230.5z M384.5,422.6c-2.2,0.5-4.6,1.1-6.9,1.5c-1.8,0.4-2.5,0.9-1.8,3.1c1.7,5.1,2.9,10.3,4.3,15.4
		c2.3,8.1,2.3,8,10.5,5.4c1.8-0.6,1.8-1.4,1.5-2.7c-1.9-7.1-3.9-14.1-5.8-21.2C386.1,423.1,386.2,421.9,384.5,422.6z M597,268.2
		c-1-0.7-1.8-1.1-2.4-1.6c-5.5-4.9-11.3-9.5-16.4-14.8c-3.4-3.5-5.6-3.2-8.7,0.3c-1.9,2.1-1.8,3,0.2,4.7
		c6.2,5.2,12.2,10.6,18.3,15.9c0.8,0.6,1.3,2.6,3,1.2C592.8,272.1,594.6,270.4,597,268.2z"/>
	<path class="st0" d="M1.2,756.8c0-17.5-0.1-35-0.1-52.5c0-33.4,0.1-66.8-0.1-100.3c0-3.7,1-4.3,4.5-4.3c24,0.2,48-0.8,71.8-4.3
		c18.5-2.7,35.8-9.3,53.2-15.8c14-5.3,27.7-11.4,42-16c1.1-0.3,2.2-0.6,3.3-0.9c2.4,2.2-0.3,3.4-1.1,4.5
		c-22.6,31-44.5,62.7-66.3,94.3c-12.5,18-27.3,33.5-44.5,47c-12.5,9.8-24.9,19.7-37.5,29.4C18,744.3,9.6,750.5,1.2,756.8z"/>
	<path class="st7" d="M780.8,105.4c4.6,5,10.1,9,15.2,13.5c8.6,7.6,17.4,14.9,26.2,22.3c2.5,2.1,4.9,4.3,7.3,6.4c1.9,1.6,2,3,0.2,5
		c-10.7,11.7-21.3,23.5-31.9,35.3c-14.5,16.1-28.9,32.2-43.3,48.4c-11.9,13.4-23.8,26.9-35.4,40.6c-3.4,4-7.3,7.5-10,12.1
		c-14.8-13.9-29.6-27.7-44.6-41.5c-1.7-1.5-1.3-2.3-0.2-3.7c23.5-28.6,46.5-57.7,70.9-85.6c14.8-17,29.4-34.3,44.1-51.4
		C779.7,106.3,780.3,105.9,780.8,105.4z"/>
	<path class="st8" d="M657.3,0.5c66.5,0,132.2,0,198.5,0c-7.2,8.5-14.1,16.5-21,24.6c-20.1,23.5-40.3,47-60.3,70.7
		c-2.5,2.9-3.9,3-6.8,0.5c-35.4-30.8-70.9-61.4-106.4-92.1C660.1,3.1,659,2.1,657.3,0.5z"/>
	<path class="st7" d="M640.7,86.2c2.2-0.4,3.3-1.8,3.7-3.9c3.7-2.7,5.3,1.3,7.6,2.5s3.3,3.2,1.5,5.7c-1.8,0.7-3,1.9-3.5,3.7
		c-0.5,0.2-1.2,0.2-1.6,0.6c-2.8,2.9-2.1,7.7-5.7,10.3c-0.7,0.5,0.6,1.7,1.3,2.3c9.3,7.6,18.6,15.2,28.1,22.5
		c2.5,1.9,2.2,2.8,0.3,4.8c-13.9,14-27.6,28.1-41.4,42.2c-4.2,4.2-4.2,4.2-8.7,0.2c-1.6-1.4-3-2.7-3.9,0.5c-4.1,3.1-4.2,3.1-0.5,6.1
		c3.3,2.7,6.6,5.3,9.9,7.9c0,0.9,0.6,1.5,1.3,2c3.9,3.2,7.8,6.5,11.7,9.8c2.5,2,2.9,3.8,0.3,6.2c-3.4,3-6.6,6.2-9.8,9.4
		c-18.9-16.4-37.6-33.1-56-50.1c4-3.5,8.5-6.6,10.8-11.7c6.1,5,12.2,10,18.3,15.1c4,3.3,3.9,3.4,7-1c3.1-1.7,0.4-2.8-0.5-3.7
		c-3.3-3-6.9-5.8-10.3-8.7c-7.4-6.3-14.8-12.6-22.3-18.8c-1.2-1-2.5-2.4-3.4,0.3c-1.6,1.1-3.5,2-3.4,4.4c-2.3,0.1-3.2,2.1-4.6,3.4
		c-2.8,2.5-4.7,6.8-9.7,4.1c0,0-0.2,0.2-0.2,0.3c-1.2-1-2.3-2-3.5-3c-0.2-2.2,1.2-3.6,2.5-5.1c2.4-2.7,5.9-4.5,7-8.3
		c2.5-1.9,5-3.6,5.3-7.1c0.1-0.9,0.9-1.8,1.5-2.5c14.9-17.2,29.9-34.4,44.8-51.6c0.1-0.1,0.3-0.1,0.4-0.2
		c6.9,3.5,12.1,9.2,17.9,14.1C637.1,92.3,639,91.8,640.7,86.2z"/>
	<path class="st9" d="M396.5,292.4c4.4-3.2,7.7-7.5,11.1-11.6c2.1-2.5,3.8-3.4,6.5-0.6c1.7,1.8,4,3.1,6.2,4.5c3,1.8,3.3,3.8,1.2,6.6
		c-8.2,10.8-16.1,21.8-24.4,32.6c-14,18.3-28.1,36.5-39.5,56.7c-1.5,2.7-3.8,5-3.8,8.4c-1.8,0.1-2.1,1.7-2.7,2.9
		c-5.1,10.4-10.5,20.7-15.2,31.4c-3.7,8.5-6.8,17.3-8.8,26.6c-1.9,9.1-4.5,18.1-7.8,26.9c-3.2,8.5-7.8,16.3-12.5,24
		c-4.9,4.8-9.7,9.5-14.7,14.2c-9.9,9.4-22,14.8-34.9,18.8c-21.5,6.8-42.9,13.7-64.3,20.5c2.6-5.6,5.6-10.8,10.5-14.7
		c22.8-6,45.8-11.9,67-22.5c6.8-3.4,13.6-6.8,19.2-12.1c6.5-4,11.5-9.6,15.6-15.9c7.4-11.3,10.4-24.4,14.2-37.1
		c0.7-2.2,2.4-4.5,1.4-7.1c-1.5-0.1-1.5,1-2,1.6c-8.3,13.2-16.6,26.3-27.6,37.5c-7.9,8.1-17,14.9-26.1,21.7c-2.8,2.1-6.7,3.1-8.1,7
		c-1.9,0.8-4.1,1.3-5.8,2.4c-13.6,8.6-28.7,14.1-43.8,19.4c-1.1-1.4-0.2-2.4,0.6-3.4c5.6-7.5,11.1-15,17.4-21.9
		c1.3,1.5,2.4,0.1,3.4-0.4c4.2-2.1,8.4-4.2,12.4-6.6c14-8.4,27.8-17.3,39.3-28.9c9.9-10,16.9-22.3,23.6-34.7
		c13.9-25.6,28.3-50.8,43.3-75.7c11.3-18.7,23.4-36.8,36.9-54C388.7,303.5,393.8,298.8,396.5,292.4z"/>
	<path class="st9" d="M1.2,557.9c15.1,0.7,30.1,3,45.3,2.5c27.2-0.9,53.5-5.7,79.1-15.4c16.3-6.2,33.1-10.7,49.7-16
		c9.3-3,18.5-6.2,27.8-9.3c1.7-0.6,3.5-1.3,5.4-1.1c-2.8,3.9-5.6,7.8-8.6,11.6c-2.6,3.3-4.3,7.4-7.8,10c-1.6,1.2-2.3,2.6-3.1,4.7
		c-1.9,5-4.9,9.8-9.3,13.4c-17.9,5.9-35.9,11.2-53.7,17.4c-30.6,10.7-62,17.1-94.5,17.2c-9.1,0-18.2-0.3-27.3,0.7
		c-2.2,0.2-3.3-0.1-3.2-2.8C1.2,579.8,1.2,568.8,1.2,557.9z"/>
	<path class="st8" d="M609.1,714.1c-4.3,4.3-10.2,5.5-15.5,7.6c-19.6,7.9-39.4,15.3-60,20.5c-11,2.8-22,1.2-33,0.7
		c-8.3-0.4-16.6-1.6-24.9-2.3c-2-0.2-3.9-0.4-5.9-1c-1.3-3.8-5.1-5.6-7.4-8.6c-1.8-2.3-4.9-3.6-5.5-6.8c8.2-5.1,16.4-10,24.5-15.3
		c16.6-10.9,30.3-25.3,45.1-38.3c5.8-5,5.5-5,11.2-0.2c12.2,10.4,23.6,21.8,36.5,31.5c6.5,4.9,13.8,8.3,21.4,11.1
		C600.1,714.7,604.6,715.4,609.1,714.1z"/>
	<path class="st10" d="M653.5,90.6c1.8-2.5,0.7-4.5-1.5-5.7c-2.3-1.3-3.9-5.3-7.6-2.5c-6.2-5.4-12.3-10.9-18.6-16.3
		c-1.4-1.2-1.5-2-0.2-3.4c13.3-15.1,26.7-30.3,39.9-45.5c1.8-2.1,2.6-0.4,3.6,0.5c12.4,11,24.8,22.1,37.2,33.2
		c8.2,7.3,16.3,14.6,24.5,21.8c1.9,1.6,2.4,2.5,0.5,4.6c-13.2,14.4-26.3,29-39.3,43.7c-1.8,2-2.8,1.4-4.4,0
		C676.3,110.8,664.9,100.7,653.5,90.6z"/>
	<path class="st7" d="M295.7,730.3c-1-4.1,1.9-6.7,4-9.3c7-8.6,14.2-16.9,21-25.6c3.1-3.9,7.1-4,11.1-3.3c7.5,1.2,15,0.9,22.4,1.4
		c5.6,0.4,11.3,1.3,17,1c2-0.1,3,1.4,4.2,2.5c10.9,9.9,21.3,20.5,31.8,30.9c0.6,0.6,1.3,1.1,2,1.6c-2.3,2.3-5.8,2.8-8,5.2
		c-5.2,0.7-9.6,2.9-13.3,6.6c-9.4,4.2-18.5,9.1-28.6,11.3c-18.7,4.2-37.4,5.4-56.2,1.2c-1.9-0.4-4,0.2-5.7-1.3
		c0.5-5.2-0.7-10.2-0.9-15.3C296.2,734.9,297.3,732.4,295.7,730.3z"/>
	<path class="st11" d="M631.4,218.9c3.3-3.1,6.4-6.4,9.8-9.4c2.7-2.3,2.2-4.2-0.3-6.2c-3.9-3.2-7.8-6.5-11.7-9.8
		c-0.7-0.6-1.3-1.1-1.3-2c2.8,0.9,5.6,1.4,8.5,0.6c-1.7,3.3-0.2,5.3,2.5,7.1c2,1.3,3.6,3.1,5.4,4.8c4.6,4.5,4.4,4.3,8.5-0.5
		c3.8-4.5,7.1-9.6,12.1-13c4.5,1.8,9.2,0.9,12.4-2.7c6.4-7.2,12.6-14.7,18.9-22c2.4-2.8,1.9-4.9-0.7-7.2c-3.3-2.9-6.5-5.9-9.7-9
		c-3.8-3.8-4.2-6.7-1.4-11.4c3.1-5.2,7.4-9.4,11.3-13.8c12.9-14.4,25.9-28.7,38.7-43.1c2-2.2,3.3-2.7,5.8-0.7
		c5.9,4.8,11.8,9.3,14.3,17c1.5,4.8,2,9.4,0.5,14.2c-2.2,6.8-5.2,13.2-10,18.6c-30.5,34.3-61,68.5-91.4,102.8
		c-2.3,2.6-3.5,3-6.1,0.4C642.2,228.5,636.7,223.8,631.4,218.9z"/>
	<path class="st2" d="M179.7,558.3c4.4-3.6,7.4-8.4,9.3-13.4c0.8-2.1,1.6-3.5,3.1-4.7c3.5-2.6,5.2-6.7,7.8-10
		c3-3.8,5.7-7.7,8.6-11.6c13-16.5,26.8-32.4,41.8-47.2c4.4-4.4,9.1-8.6,14.1-12.3c12.6-9.3,20-22.8,28.3-35.4
		c22.6-34.4,44.9-69.1,65.4-104.8c7.1-12.3,13.4-25.1,21.3-36.9c2.4,0.5,4.3,1.9,6,3.5c-9.5,16.6-18.8,33.5-28.5,49.9
		c-20.7,34.8-42.6,68.8-64.9,102.6c-5.8,8.8-11.5,17.8-20,24.3c-17.6,13.5-32,30.1-46.3,46.9c-6.3,6.9-11.8,14.5-17.4,21.9
		c-0.8,1-1.7,2-0.6,3.4h-0.4l-0.2-0.3c-0.4,0.3-0.7,0.5-1.1,0.7c-1,1.5-3.4,2.1-2.6,4.6c-4.9,3.9-8,9.1-10.5,14.7
		c-1.8,0.8-2.3,2.8-3.3,4.2c-6,8.6-12,17.3-18.2,25.7c-23.9,32.7-45.9,66.6-70.3,99c-7.7,10.2-17.4,18.3-27.1,26.4
		c-22,18.3-45,35.4-67.7,52.8c-1.6,1.2-3,2.7-5,3.1c0-2.9,0-5.8-0.1-8.6c8.4-6.3,16.8-12.5,25.1-18.9c12.5-9.7,24.9-19.6,37.4-29.4
		c17.2-13.4,32.1-28.9,44.5-47c21.8-31.6,43.7-63.2,66.3-94.3c0.8-1.1,3.5-2.3,1.1-4.5C177.7,561.8,179.8,561,179.7,558.3z"/>
	<path class="st7" d="M544.8,316.6c5.5,3.2,9.8,7.9,14.7,11.9c6.2,4.9,12.1,10,18.2,15c-10.4,9.3-19.8,19.6-29.8,29.3
		c-0.9,0.9-1.4,2.1-0.2,2.9c5,3.2,8,8.9,14,10.9c-7,7.9-14.8,15-22.6,22c-4.3-4.1-8.6-8.1-12.7-12.4c-2.1-2.2-3.3-2-5.4,0
		c-3.2,3.1-5.6,7.1-10,8.9c-8.5-7.9-16.9-15.8-25.4-23.6c3.5-2.3,7.3-5,8.4-8.6c0.9-2.7-4-4.6-5.8-7.2c-0.2-0.2-0.3-0.5-0.4-0.7
		c8.1-8.7,16.3-17.5,24.4-26.2c0.2-0.3,0.8-0.2,1.2-0.3c2.5,3.9,6.7,5.9,9.9,9.1c1.6,1.7,3.5,1.2,5.1-0.6c2.9-3.1,6-6,9-9
		c4.4-4.4,4.5-4.5-0.8-8.4c-2.4-1.8-2.6-3.2-0.2-5.2C539.4,322,541.7,318.8,544.8,316.6z"/>
	<path class="st1" d="M463.1,238.6c-2.9,0.3-3.6,3.1-5,4.8c-6.2,7.7-12.1,15.6-18.1,23.5c-3.5,4.7-4,4.8-8.6,1.5
		c-0.8-0.6-1.5-1.3-2.3-1.9c-7.8-5.9-7.7-5.8-2.3-14.2c1.7-2.6,3.8-4.9,4.7-7.9c7.4-12.7,14.8-25.3,22.2-38c0.5-0.8,1.1-1.7,0.5-2.7
		c1.7-0.7,2.5-2.2,3.4-3.7c9.6-16.5,19.1-33.2,29.7-49.1c5.3-8,10.6-16,15.9-24.1c6.8,5.8,13.5,11.8,19.8,18.1
		c-5.4,6.7-10.8,13.4-16,20.2c-3.6,4.7-7,9.6-10.5,14.4c0.3,0.3,0.6,0.5,0.9,0.8c3.1-2.5,6.2-5.1,9.3-7.6
		c8.4-6.7,17.7-12.2,26.6-18.2c3,1.8,5.3,4.4,7.6,6.9c-2.1,2.8-5.5,3.2-8.4,4.5c-8.8,3.9-16.6,9-23.4,15.9c-0.8,0.8-1.6,1.6-1.6,2.9
		c-3.3,0.8-5.1,3.6-7,5.9c-9.9,11.9-19.8,23.9-29.4,36.1C468.2,230.5,464.3,233.7,463.1,238.6z"/>
	<path class="st1" d="M604.9,0.6c8,0,15.9,0,23.9-0.1c-0.2,0.5-0.3,1.1-0.6,1.6c-6.5,8.2-13.1,16.4-19.4,24.7
		C598.5,40.3,588.4,54,580.3,69c-10.9,20.4-17.2,42.5-24.3,64.4c-1.5,4.7-2.3,9.6-5,13.9c-2.2-1.5-4.3-3.1-5.9-5.2
		c5.1-17,10.6-33.9,16.6-50.7c-10.2,13-20.4,26-28.8,40.2c-7.3-5.9-14.5-11.9-21.2-18.4c1-0.1,1.8-0.6,2.5-1.4
		c9.3-11.6,18.7-23,27.9-34.7c9.7-12.3,20-24.2,30.1-36.2c2.8-3.3,7.2-5.7,7.8-10.7l0,0c3.3-1.2,5.8-3.1,6-6.9
		c0.3-0.3,0.5-0.5,0.8-0.8c1.8-0.5,3.9-0.6,2.7-3.4c1.5-1.6,3.3-3.1,4.5-5C597.2,9.3,602.8,6.3,604.9,0.6z"/>
	<path class="st10" d="M142.2,771.6c-17.7,11.8-35.9,22.9-53,35.5c-20.6,15.2-42,29.2-62.7,44.1c-8.4,6-16.5,12.5-25.2,19.2
		c0-19.6,0-38.8,0-58.1c15.2-4,30.8-6.2,46.4-7.8c8.3-0.9,16.7-0.9,24.8-3c21.2-5.6,40.4-15.8,59.7-25.8
		C135.3,774,138.1,771.2,142.2,771.6z"/>
	<path class="st10" d="M551,147.2c2.7-4.3,3.5-9.2,5-13.9c7.1-21.8,13.4-44,24.3-64.4c8.1-15,18.2-28.7,28.5-42.2
		c6.3-8.3,12.9-16.5,19.4-24.7c0.3-0.4,0.4-1,0.6-1.6c5.8-0.1,11.6-0.1,17.5-0.2c1.3,0,2.5,0.2,3.5,1.1c3.6,3.2,7.3,6.3,11,9.4
		c1.4,1.1,1.7,1.9,0.3,3.4c-15.6,17.6-31.2,35.2-46.8,52.8c0.1-1.5-0.3-2.8-1.6-3.7c-3.9-3-7.9-6-11.8-9c-1.9-1.5-3.3-1.4-4.9,0.5
		c-4.7,5.7-9.5,11.3-14.2,16.9c-1.4,1.6-0.6,2.9,0.7,4c3.6,3,7.2,6,10.8,8.9c1.9,1.5,3.2,0.8,4.6-1c2-2.6,3.6-5.9,7.5-6.3
		c-11.3,12.9-22.5,25.8-33.8,38.7c-2,2.3-4.2,4.6-6.1,7c-3.1,3.9-4.4,8.1-2.4,13c-1.1,3.8-4.7,5.5-7,8.3c-1.3,1.5-2.7,2.9-2.5,5.1
		C552.7,148.7,551.8,148,551,147.2z"/>
	<path class="st7" d="M402,59.5c3.9-2.4,7.8-0.4,11.6,0.1c6.7,0.8,13.3,2.1,20,3.1c1.2,0.2,2.1,0.6,3,1.3
		c6.9,5.2,13.7,10.4,20.8,15.4c2.8,1.9,2.5,3.3,0.4,5.3c-3.6,3.4-7,7-10.6,10.5c-1.4,1.4-2.4,2.8-2,4.8c-7.7,6.1-14.6,13-20.4,21.7
		c-6-10.6-16.9-8.6-26-11.1c-3.1-0.9-7.2-0.3-9.3-2.1c-2.5-2.1-0.1-6.1,0.2-9.2c1-8.6,2.1-17.1,3.5-25.6c0.5-3.2,3.8-4.6,6-6.3
		C402.3,65.3,403.1,62.8,402,59.5z"/>
	<path class="st12" d="M493,395.6c-5.1,4.7-10.2,9.4-15.3,14c-1.2,1.1-2.4,0.5-3.4-0.5c-4.6-4.6-9.2-9.3-13.9-13.8
		c-1.4-1.4-1-2.2,0.1-3.5c2.2-2.4,6.4-4.2,6.2-7.1c-0.2-3.3-4.1-5.6-6.8-7.7c-5.5-4.3-9.7-10-15.4-14c-2-1.4-2.5-3-0.5-4.9
		c2.5-2.3,4.5-5.6,7.4-6.9c3.8-1.6,4.8,3.5,7.5,4.9c2.6,1.3,4.4,3.6,6.3,5.7c1.6,1.6,2.6,1.6,4.1-0.1c6-6.6,12-13.2,18.1-19.7
		c15.3-16.2,30.6-32.3,45.9-48.5c1.3-1.3,2.4-3,4.6-2.6c11.4,10,22.8,20.1,34.2,30.1c3,2.6,6,5.2,10.2,5.9c2,0.3,2.6,1.3,1.6,3.2
		c-1.6,3.1-1.6,6.5-1.8,10.6c-6.6-5.5-12.6-10.6-18.7-15.7c-4.9-4.1-9.7-8.3-14.7-12.3c-6.9-5.5-14-4.7-20,1.7
		c-15.3,16.2-30.8,32.3-46.1,48.5c-3.1,3.3-6.5,6.4-6.4,11.6c0.1,2.8,0.8,5.2,2.8,7.3C483.9,386.2,488.5,390.9,493,395.6z"/>
	<path class="st10" d="M445.1,195.1c-6.9-3.3-10.8-8.3-12.1-16.1c-1.8-10.7-4.1-21.4-4.9-32.3c-0.3-3.6,0.8-6.7,2.8-9.6
		c4.7-6.6,9.7-12.9,16.2-17.9c5.3-4.1,10.3-8.5,15.8-12.2c7.4-5.1,13.4-4.5,20,1.3c4.6,4,9,8.2,13.5,12.3c-1.3,1.1-2.4,2.3-3.3,3.8
		c-3.5,6-7.2,11.9-10.9,17.7C470.7,160.5,457.5,177.5,445.1,195.1z M462.6,149.7c1.5,0.4,2.1-0.7,2.7-1.6c5.5-8.1,11-16.2,16.5-24.2
		c1.3-1.9,0.8-3.1-1.1-4.1c-4.1-2.2-8.3-4.4-12.4-6.7c-2.2-1.2-3.4-0.8-4.9,1.3c-4,5.8-8.3,11.5-12.5,17.1
		c-6.3,8.4-6.3,8.3,2.9,13.6C456.8,146.9,459.5,148.7,462.6,149.7z"/>
	<path class="st13" d="M945.6,500c-5.7,6.6-12.7,11.7-19.1,17.5c-10,8.9-20.3,17.7-30.8,26.1c-14.5,11.6-29.3,22.8-44.1,34.1
		c-28.8,22.1-58,43.6-87.6,64.7c-20.1,14.3-39.7,29.4-62.4,39.7c-20.7,9.4-42.5,16-64,23c-2.5,0.8-4.9,2.9-7.9,1.6
		c18.8-7.2,37.5-14.4,56.2-21.6c25.1-9.7,47.7-23.2,68.8-39.9c40.9-32.5,82.4-64.4,123.2-97.1c15.2-12.1,27.8-26.3,36.2-44
		c3.6-7.6,14.4-11,22.9-7.7C939.9,497.4,942.7,498.7,945.6,500z"/>
	<path class="st2" d="M142.2,771.6c-4-0.4-6.8,2.4-10,4c-19.3,10-38.5,20.2-59.7,25.8c-8.2,2.2-16.5,2.2-24.8,3
		c-15.6,1.6-31.2,3.8-46.4,7.8c0-2.6,0-5.2,0-7.8c8.5-1.6,17-3.3,25.5-4.6c9-1.4,17.9-2.8,27-3c16.1-0.5,30.8-6.2,45.2-12.6
		c25-11.1,48.3-25.3,71.6-39.4c15.1-9.2,31.5-13.9,49-15.5c14.1-1.3,28.1-1.1,42.2-0.5c11.3,0.5,22.7,0,34,1.4
		c1.7,2.1,0.5,4.6,0.9,6.9c-13.3-0.5-26.6-1-39.9-1.5c-11.2-0.4-22.4-0.2-33.6,0.4c-20.7,1.2-39.2,8-56.3,19.4c-1,0.7-1.9,1.3-2,2.5
		c-5.9,3.5-11.9,7-17.8,10.6c-0.5-0.5-0.6,0-0.7,0.3l0.1-0.1C144.4,768.9,142.3,768.8,142.2,771.6L142.2,771.6z"/>
	<path class="st8" d="M306.8,500.6c4.7-7.7,9.3-15.4,12.5-24c3.3-8.8,5.9-17.8,7.8-26.9c1.9-9.2,5-18,8.8-26.6
		c4.6-10.7,10-21,15.2-31.4c0.6-1.2,0.9-2.8,2.7-2.9c2.9,1.4,5.8,3,8.8,4.2c1.9,0.8,3.3,1.4,3.2,3.8c-0.1,2.5-1.2,4-3.6,4.5
		c-3.9,0.8-7.8,1.6-11.7,2.2c-3.2,0.5-4.3,1.8-3.4,5.2c3.3,12.7,6.2,25.6,9.6,38.3c0.9,3.4-0.3,4.3-3,5c-7,1.6-14,3.6-21.1,5
		c-3.2,0.6-3.4,1.9-2.7,4.6c2.7,11,5.2,22,7.7,33C327.3,496.6,317,498.6,306.8,500.6z"/>
	<path class="st6" d="M358.3,104.2c0.1-8.1,1.8-16,2.7-24c0.9-7.8,2.2-15.7,3-23.5c0.3-2.5,0.9-3.6,3.5-3.4
		c6.8,0.6,13.5,1.2,20.3,1.8c1.3,0.1,1.7,0.7,1.4,2c-0.6,2.3-0.3,4.5,0,6.8c-1.5,13.8-3.1,27.5-4.6,41.3c-0.3,2.3-0.6,3.1-3.4,2.5
		c-6.3-1.6-12.7-2.5-19.1-3.7C360.7,103.6,359.5,103.6,358.3,104.2z"/>
	<path class="st14" d="M164.8,758c0.1-1.3,1-1.9,2-2.5c17.1-11.3,35.5-18.2,56.3-19.4c11.2-0.6,22.4-0.9,33.6-0.4
		c13.3,0.5,26.6,1,39.9,1.5c0.1,5.1,1.4,10.2,0.9,15.3c-10.6-1.8-21.2-3.5-31.8-5.5c-15.4-3-31-4.7-46.6-3.8
		c-17.5,1-34.1,6.5-50.3,13.2C167.4,756.9,166.1,757.5,164.8,758z"/>
	<path class="st2" d="M586.8,22.5c-0.3,0.3-0.5,0.5-0.8,0.8c-2.2,2.1-5,3.8-6,6.9l0,0c-8.1,7.2-14.8,15.7-22.2,23.5
		c-17.5,18.3-34,37.4-47.3,59.1c-2.5-1.2-5.6-1.9-5.9-5.5c3.2-2.5,4.9-6.2,7-9.5C520,84.7,530,73,540.5,61.6
		c18.6-20.3,37.1-40.7,55.6-61c2.9,0,5.8,0,8.6,0.1c-2.1,5.8-7.7,8.7-11,13.6c-1.2,1.8-3,3.3-4.5,5C588.1,19.9,587,20.9,586.8,22.5z
		"/>
	<path class="st14" d="M618.5,177.6c0.9-3.2,2.3-2,3.9-0.5c4.5,4,4.5,4,8.7-0.2c13.8-14.1,27.6-28.2,41.4-42.2
		c1.9-1.9,2.3-2.8-0.3-4.8c-9.5-7.3-18.7-15-28.1-22.6c-0.8-0.6-2.1-1.8-1.3-2.3c3.6-2.6,2.8-7.4,5.7-10.3c0.3-0.3,1-0.4,1.6-0.6
		c5.8,2.9,6.8,8.2,6.7,13.9c-0.1,4,1.7,6.6,4.7,8.9c5.7,4.3,11.1,8.8,16.8,13.1c3,2.2,3.1,4.3,0.7,7.1
		c-13.7,15.7-27.3,31.6-41.1,47.3c-3.1,3.6-6,3.6-10,0.5C624.7,182.7,621.6,180.1,618.5,177.6z"/>
	<path class="st11" d="M561.7,386.5c-5.9-2-9-7.6-14-10.9c-1.2-0.8-0.8-2,0.2-2.9c10-9.7,19.4-20,29.8-29.3c1.7,0.2,2.3,1.1,2.3,2.9
		c-0.2,5.7,1.4,11.2,2.8,16.7c0.3,1.3,0.8,2.3-0.4,3.4C575.5,373.1,568.6,379.8,561.7,386.5z"/>
	<path class="st6" d="M669.2,185.6c-0.5-0.4-1-0.8-1.6-1.3c-3.7-3.3-7.4-6.7-11.2-9.9c-1.5-1.3-1.6-2.3-0.2-3.8
		c6.2-6.9,12.3-13.8,18.3-20.8c1.4-1.7,2.3-1.4,3.7-0.2c3.9,3.6,7.8,7.1,11.8,10.5c1.5,1.3,1.6,2.1,0.2,3.7
		c-6.3,6.6-12.3,13.4-18.5,20C671,184.6,670.5,185.6,669.2,185.6z"/>
	<path class="st2" d="M445.1,195.1c12.4-17.6,25.6-34.6,37.1-52.8c3.7-5.9,7.4-11.8,10.9-17.7c0.9-1.5,1.9-2.8,3.3-3.8
		c1.8,1.7,4.5,2.3,5.4,5c-1.9,0.8-2.5,2.7-3.4,4.2c-11,18.7-23.5,36.3-36.2,53.9c-3.9,5.3-8.5,10.2-11,16.4
		C449.1,198.5,447.1,196.8,445.1,195.1z"/>
	<path class="st3" d="M605.3,77.3c-3.9,0.4-5.5,3.6-7.5,6.3c-1.4,1.8-2.7,2.5-4.6,1c-3.6-2.9-7.2-5.9-10.8-8.9c-1.3-1.1-2-2.4-0.7-4
		c4.8-5.6,9.6-11.2,14.2-16.9c1.6-2,3-2.1,4.9-0.5c3.9,3.1,7.8,6,11.8,9c1.3,1,1.7,2.2,1.6,3.7c-0.7,0.8-1.4,1.7-2.1,2.6
		c-3.9,0.9-6.3,3-6.4,7.2C605.8,77.2,605.7,77.3,605.3,77.3z"/>
	<path class="st11" d="M544.8,316.6c-3.2,2.2-5.5,5.3-8.4,7.8c-2.4,2-2.2,3.4,0.2,5.2c5.3,3.9,5.2,4,0.8,8.4c-3,3-6.1,5.9-9,9
		c-1.7,1.8-3.5,2.3-5.1,0.6c-3.2-3.2-7.4-5.3-9.9-9.1c6.3-6.6,12.6-13.3,19-19.8C536,315.1,540.2,314.5,544.8,316.6z"/>
	<path class="st6" d="M664.8,190.7c-5,3.4-8.3,8.5-12.1,13c-4.1,4.8-3.9,5-8.5,0.5c-1.7-1.7-3.4-3.5-5.4-4.8
		c-2.7-1.9-4.2-3.9-2.5-7.1c4.9-3.4,8.4-8.2,12-12.9c1.5-2,2.6-2.5,4.5-0.5C656.8,182.8,660.8,186.7,664.8,190.7z"/>
	<path class="st8" d="M532.9,131.5c8.4-14.2,18.6-27.2,28.8-40.2c-6,16.8-11.5,33.7-16.6,50.7C541,138.5,537,135,532.9,131.5z"/>
	<path class="st14" d="M579.1,313.1c0.9-4,4.7-5.8,7-8.7c4.2-5.3,9-10,13.6-15c0.7-0.8,1.5-1.3,2.6-1.3c5.5,8.2,5.4,9.4-1,16.4
		c-2.7,2.9-5.5,5.7-8.2,8.6C588.2,318.3,584.3,318.3,579.1,313.1z"/>
	<path class="st12" d="M557,152.4c0.1-0.1,0.2-0.3,0.2-0.3c5,2.7,6.9-1.6,9.7-4.1c1.4-1.3,2.4-3.2,4.6-3.4
		c4.9,4.1,9.8,8.3,14.7,12.5c-2.3,5.1-6.8,8.2-10.8,11.7C569.3,163.3,563.1,157.9,557,152.4z"/>
	<path class="st12" d="M511,405c4.4-1.8,6.8-5.8,10-8.9c2.1-2,3.3-2.2,5.4,0c4.1,4.3,8.5,8.3,12.7,12.4c-1.4,1.4-2.7,2.9-4.2,4.1
		c-6.1,4.9-10.3,4.8-16.2-0.4C516,409.9,513.6,407.5,511,405z"/>
	<path class="st10" d="M510.6,112.7c13.2-21.7,29.7-40.8,47.3-59.1c7.5-7.8,14.1-16.3,22.2-23.5c-0.6,5-5,7.3-7.8,10.7
		c-10.1,12-20.4,23.8-30.1,36.2c-9.2,11.6-18.6,23.1-27.9,34.7c-0.7,0.8-1.4,1.3-2.5,1.4C511.3,113,510.9,112.9,510.6,112.7z"/>
	<path class="st10" d="M533.2,154.6c-8.9,6-18.2,11.5-26.6,18.2c-3.1,2.5-6.2,5.1-9.3,7.6c-0.3-0.3-0.6-0.5-0.9-0.8
		c3.5-4.8,6.9-9.7,10.5-14.4c5.3-6.8,10.7-13.5,16.1-20.2C526.4,148.3,529.8,151.4,533.2,154.6z"/>
	<path class="st12" d="M451.1,200.2c2.5-6.2,7.2-11.1,11-16.4c12.7-17.6,25.2-35.2,36.2-53.9c0.9-1.5,1.6-3.4,3.4-4.2
		c0.5,0.4,1,0.8,1.5,1.2c-5.3,8-10.6,16-15.9,24.1c-10.6,15.9-20.1,32.6-29.7,49.1c-0.9,1.5-1.7,3-3.4,3.7
		C453.2,202.6,452.1,201.4,451.1,200.2z"/>
	<path class="st9" d="M457.1,724.3c0.6,3.2,3.7,4.5,5.5,6.8c2.3,3,6,4.8,7.4,8.6c-11.3-0.9-22.6-1.7-33.9-2.6
		C442.8,732.5,449.7,727.9,457.1,724.3z"/>
	<path class="st14" d="M640.7,86.2c-1.7,5.6-3.6,6.1-7.8,2.5c-5.8-4.9-11-10.6-17.9-14.1c5.7-6.2,5.7-6.2,12-0.6
		C631.6,78.1,636.2,82.2,640.7,86.2z"/>
	<path class="st13" d="M487.8,364.9c0.1,0.3,0.3,0.5,0.4,0.7c1.8,2.6,6.6,4.5,5.8,7.2c-1.1,3.6-5,6.3-8.4,8.6
		C481.3,376.5,482,371.4,487.8,364.9z"/>
	<path class="st10" d="M605.8,76.9c0.1-4.2,2.5-6.4,6.4-7.2C610,72.1,607.9,74.5,605.8,76.9z"/>
	<path class="st10" d="M142.2,771.6c0.2-2.9,2.3-2.7,4.3-2.8C145.2,770.2,143.7,770.9,142.2,771.6z"/>
	<path class="st10" d="M146.3,769c0.1-0.4,0.2-0.8,0.7-0.3C146.8,768.8,146.6,768.9,146.3,769z"/>
	<path class="st0" d="M955,503.3c30.9,9.7,62.2,17.7,93.2,26.8c-1.6,10.4-5.2,20.3-7.2,30.6c-2.4,12.6-6.8,24.6-12.3,36.2
		c-2.1,4.4-5.9,7.9-8.7,12c-11.9,17.7-22,36.4-32.9,54.7c-10.6,17.8-24.1,32.8-40.5,45.5c-7.7,6-15.5,11.8-24,16.8
		c-11.4,6.6-23.8,10.7-36.3,14.6c-19.2,6-38.5,12-57.9,17.1c-21.5,5.7-42.9,11.7-64.4,17.4c-44.1,11.5-87.5,25.3-129.6,42.9
		c-13.1,5.5-26.2,11-38.9,17.3c-11.6,5.7-22,12.8-30.8,22.3c-1.3,1.5-2.6,3-4.5,4.3c-0.3-6.5-1.9-12.5-3.1-18.7
		c-4.2-21.8-15.5-40-28.9-57.1c-6.1-7.8-14.6-12-22.7-16.8c-7-4.1-13.5-8.9-19.1-14.8c-1.8-1.9-4.8-2.7-5.4-5.7
		c9.3,0.8,18.6,1.6,27.9,2.5c16.7,1.6,32.5-2.5,48-7.8c19.6-6.7,39-13.9,57.9-22.6c12.5-5.7,26-9,39.1-13.2
		c17.7-5.7,35.3-11.8,52.3-19.5c20.6-9.4,38.5-23,56.8-35.9c29.1-20.5,57.8-41.7,86.1-63.3c24.6-18.7,49.6-36.9,72.7-57.6
		c9.3-8.3,18.7-16.5,28.1-24.7C951.4,504.9,952.9,503.5,955,503.3z"/>
	<path class="st12" d="M1097.6,547c11.4,3.4,22.8,6.7,34.2,10.1c-0.6,2.4-2.7,2.2-4.4,2.5c-5.1,0.9-10.3,1.7-15.4,2.2
		c-6.6,0.7-12.1,4.5-18.6,5.7c-1.5,0.3-3.3,1.5-4.4,0.2c-1.1-1.4,0.2-3.2,0.9-4.6C1092.5,557.6,1095.1,552.3,1097.6,547z"/>
	<path class="st8" d="M1057,532.9c2.2,0.7,4.3,1.4,6.4,2c0.6,2.9-1,5.3-1.9,7.8c-5.1,13.5-10.3,27-15.5,40.5
		c-0.1,0.3-0.2,0.5-0.4,0.8c-0.9,1.5-2,3.8-3.5,3.2c-2.2-0.8-0.3-3,0.1-4.4c4.2-15.3,8.4-30.6,12.6-45.9
		C1055.3,535.3,1055.5,533.8,1057,532.9z"/>
	<path class="st10" d="M1080.6,540.7c3.3,0.8,6.4,2,9.4,3.6c0.2,1.9-0.5,3.6-1.4,5.2c-2.4,4.8-5.4,9.4-7.1,14.5
		c-2.3,7.2-7.8,8.7-14.6,9.7C1071.6,562.5,1076.1,551.6,1080.6,540.7z"/>
	<path class="st1" d="M1089.1,521.6c-5.8-1.3-11.5-2.7-17.1-4.7c7.3-17.1,14.5-34.1,21.8-51.2c1.6-3.7,3.1-7.4,4.7-11.1
		c-0.4-0.2-0.8-0.3-1.2-0.5c-2.7,4.6-5.4,9.1-8.2,13.7c-9.1,15.2-17,31.1-24,47.4c-3-0.3-5.8-1.2-8.6-2.3c4.3-11,9.7-21.3,15.7-31.5
		c13.4-23,26.7-46.1,40-69.2c0.6-1.1,2.2-2.1,0.7-3.7c9.1-4.8,18.2-9.6,27.4-14.5c-1.4,8.7-4.3,17-6.4,25.5
		c-6.2,25-14.5,49.4-21.2,74.3c-2.9,10.6-6,21.2-7.6,32.2c-3.3-0.7-6.6-1.4-9.7-2.8c3.4-1.9,2.7-5.7,3.6-8.6
		c6.6-21.5,12.9-43.1,19.3-64.6c0.2-0.6,0.8-1.3-0.7-1.7c-5.3,12.8-10.5,25.6-15.8,38.3C1097.2,498,1092.4,509.5,1089.1,521.6z"/>
	<path class="st0" d="M1113,408.5c1.5,1.5-0.1,2.6-0.7,3.7c-13.3,23.1-26.6,46.2-40,69.2c-5.9,10.2-11.4,20.5-15.7,31.5
		c-20.6-5.3-41.2-10.8-61.9-16c-8.2-2.1-16.5-3.8-24.3-7.3c7.8-7.8,16.9-13.9,26.1-19.7c21-13.3,43.1-24.7,65.4-35.9
		c15.6-7.8,31.2-15.8,46.8-23.7C1110.1,409.6,1111.5,409.1,1113,408.5z"/>
	<path class="st8" d="M1089.1,521.6c3.4-12,8.1-23.5,12.8-35c5.3-12.8,10.5-25.6,15.8-38.3c1.4,0.4,0.8,1.1,0.7,1.7
		c-6.4,21.6-12.7,43.1-19.3,64.6c-0.9,3-0.3,6.7-3.6,8.6C1093.3,522.6,1091.2,522.1,1089.1,521.6z"/>
	<path class="st8" d="M1065.2,515.1c7-16.3,14.9-32.1,24-47.4c2.7-4.6,5.4-9.1,8.2-13.7c0.4,0.2,0.8,0.3,1.2,0.5
		c-1.6,3.7-3.1,7.4-4.7,11.1c-7.3,17.1-14.5,34.1-21.8,51.2C1069.7,516.3,1067.4,515.7,1065.2,515.1z"/>
	<path class="st3" d="M288.9,541.3c1.9,0.3,2,1.9,2.6,3.1c8.8,17.8,17.6,35.7,26.4,53.5c1.9,3.8,3.7,7.7,5.8,11.4
		c1.5,2.7,0.9,4-1.8,5.2c-10.6,4.4-21.1,9-31.7,13.5c-4.6,1.9-9.2,3.8-13.7,5.9c-2.3,1.1-3.5,0.8-4.6-1.5
		c-10.6-22.3-21.3-44.5-32.1-66.8c-1.3-2.6,0.1-3.3,1.9-4c12.8-5.5,25.5-10.9,38.3-16.4C282.9,543.8,285.9,542.6,288.9,541.3z"/>
	<path class="st8" d="M225.7,509.2c14.3-16.7,28.7-33.3,46.3-46.9c8.4-6.5,14.2-15.5,20-24.3c22.3-33.8,44.3-67.8,64.9-102.6
		c9.8-16.5,19-33.3,28.5-49.9c3.7,2.3,7.4,4.5,11.1,6.8c-2.7,6.4-7.8,11.1-11.9,16.4c-13.5,17.2-25.6,35.3-36.9,54
		c-15,24.9-29.5,50.2-43.3,75.7c-6.7,12.4-13.7,24.7-23.6,34.7c-11.5,11.7-25.3,20.5-39.3,28.9c-4,2.4-8.2,4.5-12.4,6.6
		C228,509.3,227,510.7,225.7,509.2z"/>
	<path class="st14" d="M382.9,395.7c-0.4-3,1.6-5,3.3-7c4.4-5.2,9.1-10.1,13.4-15.4c3.3-4,7.3-3.2,11.3-2.2c3.5,0.9,4.8,3.7,5.2,7
		c0.3,2.1,0.6,4.2,1,6.3c-0.1,1.1-0.7,1.9-1.7,2.2C404.5,389.7,394,393.7,382.9,395.7z"/>
	<path class="st0" d="M463.1,238.6c1.2-4.9,5.1-8,8-11.8c9.6-12.2,19.4-24.2,29.4-36.1c1.9-2.3,3.7-5.1,7-5.9
		c3.3,2.4,2.4,4.6,0.1,7.3c-12.3,14.1-24.4,28.3-36.6,42.4c-1.1,1.3-2.7,2.3-3.5,3.7C466,240.6,464.7,239.8,463.1,238.6z"/>
	<path class="st12" d="M532.3,285.5c-2,2.4-3.9,4.8-5.9,7.1c-1.3,1.6-2.7,1.7-4.3,0.2c-5.1-4.9-10.2-9.7-15.4-14.5
		c-1.5-1.4-1.8-2.7-0.7-4.4c1.5-2.4,3-4.8,4.5-7.2C518.9,271.6,525.1,279.1,532.3,285.5z"/>
	<path class="st11" d="M536.5,216.4c-3.8-1.1-7.4-0.1-11.1,0.7c0.3-2.6,2-4.4,3.9-5.9c3.3-2.5,2.8-4.5-0.1-6.9
		c-3.9-3.3-7.5-6.9-11.3-10.3c-1.3-1.2-2.4-2.3-0.6-4.2c1.9-2,3.1-1.1,4.5,0.4c4.7,5.1,9.5,10.1,14.3,15.2c1.2,1.3,1.5,2.8,1,4.3
		C536.3,211.9,536.6,214.2,536.5,216.4z"/>
	<path class="st13" d="M425,375.2c-0.8-5.7-2.4-11.5,0.5-17.1c3.7,1,5.4,4.7,8.6,6.5c1,0.6,0.9,1.7,0,2.5
		C430.9,369.8,428.8,373.4,425,375.2z"/>
	<path class="st1" d="M611.5,171.2c-12.2-10.3-24.4-20.6-36.6-30.9c0.9-2.7,2.3-1.3,3.4-0.3c7.4,6.3,14.8,12.6,22.3,18.8
		c3.4,2.9,7,5.7,10.3,8.7C611.9,168.4,614.7,169.5,611.5,171.2z"/>
	<path class="st10" d="M257.3,512.7c1.3-3.9,5.2-4.9,8.1-7c9.1-6.8,18.1-13.5,26.1-21.7c10.9-11.2,19.3-24.4,27.6-37.5
		c0.4-0.6,0.5-1.7,2-1.6c1,2.6-0.7,4.9-1.4,7.1c-3.8,12.7-6.9,25.8-14.2,37.1c-4.1,6.3-9.1,11.8-15.6,15.9
		C278.9,507.5,268.1,510.1,257.3,512.7z"/>
	<path class="st9" d="M207.1,534.3c0,0.8-0.6,0.7-1.1,0.7C206.4,534.7,206.8,534.5,207.1,534.3z"/>
	<path class="st10" d="M580,30.2c1-3.2,3.8-4.8,6-6.9C585.8,27.1,583.3,29,580,30.2z"/>
	<path class="st10" d="M586.8,22.5c0.3-1.6,1.3-2.6,2.7-3.4C590.7,21.9,588.5,22.1,586.8,22.5z"/>
	<path class="st3" d="M462.6,149.7c-3.1-1-5.8-2.8-8.6-4.4c-9.3-5.3-9.2-5.3-2.9-13.6c4.3-5.7,8.5-11.3,12.5-17.1
		c1.5-2.1,2.7-2.6,4.9-1.3c4.1,2.3,8.2,4.5,12.4,6.7c1.9,1,2.4,2.2,1.1,4.1c-5.5,8-11,16.2-16.5,24.2
		C464.7,149,464,150.1,462.6,149.7z"/>
	<path class="st6" d="M89.8,880.4c-7.3-10.4-14.6-20.9-21.9-31.3c-0.8-1.2-0.8-1.9,0.4-2.8c13.6-9.5,36.7-27,50.7-36
		c1.8,0.3,2.4,1.8,3.3,3.1c6.3,9.4,12.5,18.9,18.9,28.2c2.1,3,1.4,4.6-1.4,6.3C126.4,856.3,103.1,872.1,89.8,880.4z"/>
</g>
</svg>
